<?xml version="1.0" encoding="UTF-8"?>
<svg id="Layer_1" xmlns="http://www.w3.org/2000/svg" xmlns:xlink="http://www.w3.org/1999/xlink" version="1.1" viewBox="0 0 133 114">
  <!-- Generator: Adobe Illustrator 30.2.1, SVG Export Plug-In . SVG Version: 2.1.1 Build 1)  -->
  <defs>
    <style>
      .st0 {
        fill: none;
      }

      .st1 {
        fill: url(#linear-gradient2);
      }

      .st2 {
        fill: url(#linear-gradient1);
      }

      .st3 {
        fill: url(#linear-gradient3);
      }

      .st4 {
        fill: url(#linear-gradient);
      }

      .st5 {
        clip-path: url(#clippath);
      }
    </style>
    <clipPath id="clippath">
      <rect class="st0" width="133" height="114"/>
    </clipPath>
    <linearGradient id="linear-gradient" x1="57.1" y1="116" x2="57.1" y2="33.54" gradientTransform="translate(0 116) scale(1 -1)" gradientUnits="userSpaceOnUse">
      <stop offset="0" stop-color="#1f1f1f"/>
      <stop offset="1" stop-color="#000"/>
    </linearGradient>
    <linearGradient id="linear-gradient1" x1="66.3" y1="90.88" x2="66.3" y2="78.07" gradientTransform="translate(0 116) scale(1 -1)" gradientUnits="userSpaceOnUse">
      <stop offset="0" stop-color="#1f1f1f"/>
      <stop offset="1" stop-color="#000"/>
    </linearGradient>
    <linearGradient id="linear-gradient2" x1="59.34" y1="109.38" x2="59.34" y2="2" gradientTransform="translate(0 116) scale(1 -1)" gradientUnits="userSpaceOnUse">
      <stop offset="0" stop-color="#1f1f1f"/>
      <stop offset="1" stop-color="#000"/>
    </linearGradient>
    <linearGradient id="linear-gradient3" x1="105.15" y1="84.83" x2="105.15" y2="2.37" gradientTransform="translate(0 116) scale(1 -1)" gradientUnits="userSpaceOnUse">
      <stop offset="0" stop-color="#1f1f1f"/>
      <stop offset="1" stop-color="#000"/>
    </linearGradient>
  </defs>
  <g class="st5">
    <g>
      <path class="st4" d="M99.4,0H25.73l-10.92,19.04,36.77,63.41,7.29-12.67L29.73,19.29l3.16-6.27,59.47-.24,7.05-12.78Z"/>
      <path class="st2" d="M47.55,25.17l7.6,12.76h22.26l7.65-12.76s-37.61-.11-37.51,0h0Z"/>
      <path class="st1" d="M110.68,6.62l8,12.39-55.49,94.99h-22.39L0,43.9l7.71-12.66,40.12,69.15h7.82L110.68,6.62Z"/>
      <path class="st3" d="M77.3,113.63L125.38,31.17l7.62,12.98-40.57,69.48s-15.31,0-15.13,0Z"/>
    </g>
  </g>
</svg>